<svg xmlns="http://www.w3.org/2000/svg" width="60" height="61" fill="none"><g filter="url(#a)"><rect width="60" height="60" y=".156" fill="url(#b)" rx="14"/><g filter="url(#c)"><path fill="url(#d)" stroke="url(#e)" d="M30 24.656a4.5 4.5 0 1 1 0-9 4.5 4.5 0 0 1 0 9Zm-10.833 20a4.5 4.5 0 1 1 0-9 4.5 4.5 0 0 1 0 9Zm21.666 0a4.5 4.5 0 1 1 0-9 4.5 4.5 0 0 1 0 9Zm-19.09-23.33a.75.75 0 0 1-.066 1.06 12.552 12.552 0 0 0-4.26 9.437.75.75 0 0 1-1.5 0c0-4.206 1.845-7.983 4.767-10.562a.75.75 0 0 1 1.059.066Zm16.514 0a.75.75 0 0 1 1.059-.065 14.052 14.052 0 0 1 4.767 10.562.75.75 0 0 1-1.5 0c0-3.758-1.646-7.13-4.26-9.438a.75.75 0 0 1-.066-1.058ZM25.94 44.55a.75.75 0 0 1 .914-.54c1.004.26 2.059.397 3.146.397a12.61 12.61 0 0 0 3.146-.396.75.75 0 0 1 .374 1.453c-1.126.29-2.305.443-3.52.443a14.14 14.14 0 0 1-3.52-.443.75.75 0 0 1-.54-.914Z"/></g></g><defs><linearGradient id="b" x1="-2.088" x2="30" y1=".156" y2="60.156" gradientUnits="userSpaceOnUse"><stop stop-color="#FF9A4D"/><stop offset="1" stop-color="#FF6E00"/></linearGradient><linearGradient id="d" x1="30" x2="30" y1="15.156" y2="83.99" gradientUnits="userSpaceOnUse"><stop offset=".265" stop-color="#fff"/><stop offset="1" stop-color="#fff" stop-opacity="0"/></linearGradient><linearGradient id="e" x1="30" x2="30" y1="15.156" y2="46.406" gradientUnits="userSpaceOnUse"><stop stop-color="#fff" stop-opacity="0"/><stop offset="1" stop-color="#fff"/></linearGradient><filter id="a" width="60" height="62" x="0" y=".156" color-interpolation-filters="sRGB" filterUnits="userSpaceOnUse"><feFlood flood-opacity="0" result="BackgroundImageFix"/><feBlend in="SourceGraphic" in2="BackgroundImageFix" result="shape"/><feColorMatrix in="SourceAlpha" result="hardAlpha" values="0 0 0 0 0 0 0 0 0 0 0 0 0 0 0 0 0 0 127 0"/><feOffset dy="2"/><feGaussianBlur stdDeviation="2.1"/><feComposite in2="hardAlpha" k2="-1" k3="1" operator="arithmetic"/><feColorMatrix values="0 0 0 0 1 0 0 0 0 1 0 0 0 0 1 0 0 0 0.25 0"/><feBlend in2="shape" result="effect1_innerShadow_344_1038"/><feColorMatrix in="SourceAlpha" result="hardAlpha" values="0 0 0 0 0 0 0 0 0 0 0 0 0 0 0 0 0 0 127 0"/><feOffset dy="1"/><feGaussianBlur stdDeviation="1"/><feComposite in2="hardAlpha" k2="-1" k3="1" operator="arithmetic"/><feColorMatrix values="0 0 0 0 1 0 0 0 0 1 0 0 0 0 1 0 0 0 0.1 0"/><feBlend in2="effect1_innerShadow_344_1038" result="effect2_innerShadow_344_1038"/></filter><filter id="c" width="48.8" height="48.8" x="5.6" y="7.756" color-interpolation-filters="sRGB" filterUnits="userSpaceOnUse"><feFlood flood-opacity="0" result="BackgroundImageFix"/><feColorMatrix in="SourceAlpha" result="hardAlpha" values="0 0 0 0 0 0 0 0 0 0 0 0 0 0 0 0 0 0 127 0"/><feOffset dy="2"/><feGaussianBlur stdDeviation="2.2"/><feComposite in2="hardAlpha" operator="out"/><feColorMatrix values="0 0 0 0 0.0342342 0 0 0 0 0.378378 0 0 0 0 0.0216216 0 0 0 0.3 0"/><feBlend in2="BackgroundImageFix" result="effect1_dropShadow_344_1038"/><feBlend in="SourceGraphic" in2="effect1_dropShadow_344_1038" result="shape"/></filter></defs></svg>