<svg xmlns="http://www.w3.org/2000/svg" width="371" height="510" fill="none"><g clip-path="url(#a)"><path fill="url(#b)" fill-opacity=".1" d="M266.316 347.287C98.886 225.088 3.282 27.339-23.591-56.261l-272.71 483.018c196.185 11.942 381.355 85.662 449.416 121.03 14.105-21.602 56.493-91.944 113.201-200.5Z"/><path fill="url(#c)" fill-opacity=".03" d="M246.269 382.794C77.442 263.069-25.419 78.174-55.747.693l-240.554 426.064c191.197 20.778 374.81 97.254 442.717 132.895 12.612-18.958 50.241-80.87 99.853-176.858Z"/><path stroke="#fff" d="M-55.747.693c30.328 77.481 133.19 262.376 302.016 382.101-49.612 95.988-87.241 157.9-99.853 176.858"/><path stroke="#fff" stroke-width="2" d="M-33.203-75.491c29.39 88.694 130.446 296.826 299.558 419.8-52.015 119.941-91.272 197.954-104.399 221.968"/><path fill="url(#d)" d="M0 0h404.301v229.473H0z" transform="matrix(-1 0 0 1 404.301 280.226)"/></g><defs><linearGradient id="b" x1="-719.389" x2="-838.568" y1="-311.314" y2="552.285" gradientUnits="userSpaceOnUse"><stop stop-color="#FF8529"/><stop offset="1" stop-color="#FF8529" stop-opacity="0"/></linearGradient><linearGradient id="c" x1="-744.589" x2="-882.928" y1="-266.681" y2="501.779" gradientUnits="userSpaceOnUse"><stop stop-color="#FF8529"/><stop offset="1" stop-color="#FF8529" stop-opacity="0"/></linearGradient><linearGradient id="d" x1="202.15" x2="202.15" y1="0" y2="229.473" gradientUnits="userSpaceOnUse"><stop stop-color="#F8FAFC" stop-opacity="0"/><stop offset="1" stop-color="#F8FAFC"/></linearGradient><clipPath id="a"><path fill="#fff" d="M371 .699H0v509h371z"/></clipPath></defs></svg>