<svg xmlns="http://www.w3.org/2000/svg" width="60" height="61" fill="none"><g filter="url(#a)"><rect width="60" height="60" y=".656" fill="url(#b)" rx="14"/><g filter="url(#c)"><mask id="f" fill="#fff"><path fill-rule="evenodd" d="M36.667 20.656a6.667 6.667 0 1 1-13.334 0 6.667 6.667 0 0 1 13.334 0Zm-.537 12.505c-.788.01-1.523.038-2.163.124-1.072.144-2.245.489-3.214 1.458-.969.969-1.313 2.142-1.457 3.213-.13.963-.13 2.14-.13 3.39v.287c0 1.25 0 2.427.13 3.39.1.752.3 1.554.745 2.3H30c-13.333 0-13.333-3.358-13.333-7.5 0-4.142 5.97-7.5 13.333-7.5 2.21 0 4.295.302 6.13.838Zm-3.61 13.308c.855.854 2.23.854 4.98.854 2.75 0 4.125 0 4.98-.854.853-.855.853-2.23.853-4.98 0-2.75 0-4.124-.854-4.978-.854-.855-2.23-.855-4.979-.855-2.75 0-4.125 0-4.98.855-.853.854-.853 2.229-.853 4.979s0 4.124.854 4.979Zm8.26-7.611c.38.38.38.995 0 1.375l-3.889 3.889a.972.972 0 0 1-1.375 0l-1.296-1.297a.972.972 0 0 1 1.375-1.375l.609.61 3.201-3.202a.972.972 0 0 1 1.375 0Z" clip-rule="evenodd"/></mask><path fill="url(#d)" fill-rule="evenodd" d="M36.667 20.656a6.667 6.667 0 1 1-13.334 0 6.667 6.667 0 0 1 13.334 0Zm-.537 12.505c-.788.01-1.523.038-2.163.124-1.072.144-2.245.489-3.214 1.458-.969.969-1.313 2.142-1.457 3.213-.13.963-.13 2.14-.13 3.39v.287c0 1.25 0 2.427.13 3.39.1.752.3 1.554.745 2.3H30c-13.333 0-13.333-3.358-13.333-7.5 0-4.142 5.97-7.5 13.333-7.5 2.21 0 4.295.302 6.13.838Zm-3.61 13.308c.855.854 2.23.854 4.98.854 2.75 0 4.125 0 4.98-.854.853-.855.853-2.23.853-4.98 0-2.75 0-4.124-.854-4.978-.854-.855-2.23-.855-4.979-.855-2.75 0-4.125 0-4.98.855-.853.854-.853 2.229-.853 4.979s0 4.124.854 4.979Zm8.26-7.611c.38.38.38.995 0 1.375l-3.889 3.889a.972.972 0 0 1-1.375 0l-1.296-1.297a.972.972 0 0 1 1.375-1.375l.609.61 3.201-3.202a.972.972 0 0 1 1.375 0Z" clip-rule="evenodd"/><path fill="url(#e)" d="m33.967 33.285-.134-.99.134.99Zm2.163-.124.012 1 .268-1.96-.28.96Zm-5.377 1.582-.707-.707.707.707Zm-1.457 3.213-.991-.133.99.133Zm-.13 3.39h1-1Zm0 .287h1-1Zm.13 3.39.99-.133-.99.133Zm.745 2.3v1h1.76l-.9-1.512-.86.512Zm-.041 0v1-1Zm2.52-.854-.706.707.707-.707Zm9.96 0 .706.707-.707-.707Zm0-9.959-.708.708.707-.708Zm-9.96 0 .708.708-.707-.708Zm4.371 7.611.707.708-.707-.708Zm-1.375 0-.707.708.707-.708Zm-1.296-1.296.707-.707-.707.707Zm0-1.375-.707-.707.707.707Zm1.375 0 .707-.707-.707.707Zm.609.61-.707.706.707.707.707-.707-.707-.707ZM30 28.322a7.667 7.667 0 0 0 7.667-7.667h-2A5.667 5.667 0 0 1 30 26.323v2Zm-7.667-7.667A7.667 7.667 0 0 0 30 28.323v-2a5.667 5.667 0 0 1-5.667-5.667h-2ZM30 12.99a7.667 7.667 0 0 0-7.667 7.666h2A5.667 5.667 0 0 1 30 14.99v-2Zm7.667 7.666A7.667 7.667 0 0 0 30 12.99v2a5.667 5.667 0 0 1 5.667 5.666h2ZM34.1 34.276c.578-.077 1.263-.106 2.042-.115l-.024-2c-.797.01-1.582.039-2.285.133l.267 1.982Zm-2.64 1.174c.752-.752 1.678-1.044 2.64-1.174l-.267-1.982c-1.181.159-2.6.555-3.787 1.742l1.414 1.414Zm-1.173 2.64c.13-.962.421-1.888 1.173-2.64l-1.414-1.414c-1.186 1.186-1.582 2.605-1.741 3.787l1.982.266Zm-.12 3.256c0-1.272.001-2.374.12-3.257l-1.982-.266c-.14 1.043-.139 2.294-.138 3.523h2Zm0 .287v-.287h-2v.287h2Zm.12 3.257c-.119-.883-.12-1.984-.12-3.257h-2c0 1.229-.003 2.48.138 3.523l1.982-.266Zm.613 1.92c-.35-.588-.522-1.244-.613-1.92l-1.982.266c.11.827.338 1.775.878 2.679l1.717-1.024Zm-.9 1.513h.042v-2H30v2Zm-14.333-8.5c0 1.984-.054 4.377 2.035 6.079 1.006.819 2.43 1.415 4.391 1.812 1.966.398 4.54.609 7.907.609v-2c-3.299 0-5.726-.209-7.51-.57-1.789-.362-2.864-.864-3.525-1.402-1.245-1.014-1.298-2.37-1.298-4.528h-2ZM30 31.323c-3.821 0-7.33.869-9.918 2.325-2.558 1.438-4.415 3.582-4.415 6.175h2c0-1.55 1.127-3.156 3.395-4.432 2.237-1.258 5.395-2.068 8.938-2.068v-2Zm6.41.878c-1.931-.564-4.11-.878-6.41-.878v2c2.121 0 4.111.29 5.85.798l.56-1.92Zm1.09 14.122c-1.403 0-2.355-.002-3.067-.098-.684-.092-.995-.253-1.205-.463l-1.414 1.414c.644.644 1.447.91 2.352 1.031.877.118 1.987.116 3.334.116v-2Zm4.272-.561c-.21.21-.521.371-1.205.463-.712.096-1.664.098-3.067.098v2c1.347 0 2.457.002 3.334-.116.905-.121 1.708-.387 2.352-1.031l-1.414-1.414Zm.561-4.272c0 1.403-.002 2.355-.097 3.067-.092.683-.254.994-.464 1.205l1.414 1.414c.644-.644.91-1.448 1.032-2.353.117-.876.115-1.987.115-3.333h-2Zm-.561-4.272c.21.21.372.521.464 1.204.095.713.097 1.664.097 3.068h2c0-1.347.003-2.458-.115-3.334-.122-.905-.388-1.709-1.032-2.353l-1.414 1.415Zm-4.272-.562c1.403 0 2.355.002 3.067.098.684.092.995.253 1.205.464l1.414-1.415c-.644-.643-1.447-.91-2.352-1.031-.877-.118-1.987-.116-3.334-.116v2Zm-4.272.562c.21-.21.521-.372 1.205-.464.712-.096 1.664-.098 3.067-.098v-2c-1.347 0-2.457-.002-3.334.116-.905.122-1.708.388-2.352 1.031l1.414 1.415Zm-.561 4.272c0-1.404.002-2.355.097-3.068.092-.683.254-.994.464-1.204l-1.414-1.415c-.644.644-.91 1.448-1.032 2.353-.117.876-.115 1.987-.115 3.334h2Zm.561 4.272c-.21-.21-.372-.522-.464-1.205-.095-.712-.097-1.664-.097-3.067h-2c0 1.346-.003 2.457.115 3.333.122.905.388 1.709 1.032 2.353l1.414-1.414Zm8.26-4.822c.77-.77.77-2.02 0-2.79l-1.415 1.415a.032.032 0 0 1-.008-.02c0-.002 0-.006.002-.01a.032.032 0 0 1 .006-.01l1.414 1.415Zm-3.89 3.889 3.89-3.89-1.415-1.413-3.889 3.888 1.414 1.415Zm-2.789 0c.77.77 2.02.77 2.79 0l-1.415-1.415a.03.03 0 0 1 .02-.008c.002 0 .006 0 .01.002a.03.03 0 0 1 .01.006l-1.415 1.415Zm-1.296-1.297 1.296 1.297 1.414-1.415-1.296-1.296-1.414 1.414Zm0-2.789c-.77.77-.77 2.02 0 2.79l1.414-1.415a.03.03 0 0 1 .008.02c0 .002 0 .006-.002.01a.03.03 0 0 1-.006.01l-1.414-1.415Zm2.789 0a1.972 1.972 0 0 0-2.79 0l1.415 1.414a.03.03 0 0 1-.02.009c-.002 0-.005 0-.01-.003a.03.03 0 0 1-.01-.006l1.415-1.414Zm.609.609-.609-.609-1.414 1.414.609.61 1.414-1.415Zm1.787-3.201-3.201 3.201 1.414 1.414 3.201-3.201-1.414-1.414Zm2.79 0a1.972 1.972 0 0 0-2.79 0l1.414 1.414a.03.03 0 0 1-.02.008l-.01-.002a.033.033 0 0 1-.01-.006l1.415-1.414Z" mask="url(#f)"/></g></g><defs><linearGradient id="b" x1="-2.088" x2="30" y1=".656" y2="60.656" gradientUnits="userSpaceOnUse"><stop stop-color="#5AF854"/><stop offset="1" stop-color="#10D109"/></linearGradient><linearGradient id="d" x1="30" x2="30" y1="13.99" y2="87.412" gradientUnits="userSpaceOnUse"><stop offset=".265" stop-color="#fff"/><stop offset="1" stop-color="#fff" stop-opacity="0"/></linearGradient><linearGradient id="e" x1="30" x2="30" y1="13.99" y2="47.323" gradientUnits="userSpaceOnUse"><stop stop-color="#fff" stop-opacity="0"/><stop offset="1" stop-color="#fff"/></linearGradient><filter id="a" width="60" height="62" x="0" y=".656" color-interpolation-filters="sRGB" filterUnits="userSpaceOnUse"><feFlood flood-opacity="0" result="BackgroundImageFix"/><feBlend in="SourceGraphic" in2="BackgroundImageFix" result="shape"/><feColorMatrix in="SourceAlpha" result="hardAlpha" values="0 0 0 0 0 0 0 0 0 0 0 0 0 0 0 0 0 0 127 0"/><feOffset dy="2"/><feGaussianBlur stdDeviation="2.1"/><feComposite in2="hardAlpha" k2="-1" k3="1" operator="arithmetic"/><feColorMatrix values="0 0 0 0 1 0 0 0 0 1 0 0 0 0 1 0 0 0 0.25 0"/><feBlend in2="shape" result="effect1_innerShadow_344_917"/><feColorMatrix in="SourceAlpha" result="hardAlpha" values="0 0 0 0 0 0 0 0 0 0 0 0 0 0 0 0 0 0 127 0"/><feOffset dy="1"/><feGaussianBlur stdDeviation="1"/><feComposite in2="hardAlpha" k2="-1" k3="1" operator="arithmetic"/><feColorMatrix values="0 0 0 0 1 0 0 0 0 1 0 0 0 0 1 0 0 0 0.1 0"/><feBlend in2="effect1_innerShadow_344_917" result="effect2_innerShadow_344_917"/></filter><filter id="c" width="48.8" height="48.8" x="5.6" y="8.256" color-interpolation-filters="sRGB" filterUnits="userSpaceOnUse"><feFlood flood-opacity="0" result="BackgroundImageFix"/><feColorMatrix in="SourceAlpha" result="hardAlpha" values="0 0 0 0 0 0 0 0 0 0 0 0 0 0 0 0 0 0 127 0"/><feOffset dy="2"/><feGaussianBlur stdDeviation="2.2"/><feComposite in2="hardAlpha" operator="out"/><feColorMatrix values="0 0 0 0 0.0486956 0 0 0 0 0.363478 0 0 0 0 0.0365217 0 0 0 0.3 0"/><feBlend in2="BackgroundImageFix" result="effect1_dropShadow_344_917"/><feBlend in="SourceGraphic" in2="effect1_dropShadow_344_917" result="shape"/></filter></defs></svg>