<svg xmlns="http://www.w3.org/2000/svg" width="60" height="61" fill="none"><g filter="url(#a)"><rect width="60" height="60" y=".156" fill="url(#b)" rx="14"/><g filter="url(#c)"><path fill="url(#d)" stroke="url(#e)" d="m27.044 37.349-.313.39.313-.39-.518-.415c-1.014-.813-1.73-1.388-2.182-1.874-.45-.484-.539-.773-.504-1.018.035-.242.196-.488.758-.811.568-.327 1.41-.658 2.608-1.127l.61-.24.09-.034c.584-.229 1.015-.397 1.336-.723.32-.326.482-.76.7-1.347l.034-.089.229-.614c.448-1.202.765-2.05 1.081-2.62.314-.567.558-.733.8-.772.247-.04.54.044 1.032.485.495.442 1.085 1.145 1.918 2.142l.425.509.06.072c.408.489.706.845 1.116 1.051.41.207.873.231 1.506.265l.093.005.66.036c1.29.07 2.201.12 2.85.252.643.131.887.315 1.006.54.118.224.132.523-.127 1.116-.262.599-.741 1.364-1.423 2.449l-.348.554-.05.08c-.334.53-.58.92-.645 1.374-.065.453.061.9.233 1.508l.026.092.178.636c.35 1.245.596 2.125.68 2.778.082.65-.016.929-.186 1.102-.17.172-.449.276-1.102.205-.657-.072-1.543-.3-2.798-.627l-.64-.167-.126.484.126-.484-.092-.024c-.614-.16-1.063-.277-1.515-.205-.453.073-.84.325-1.365.668l-.08.051-.548.358c-1.075.7-1.833 1.192-2.43 1.464-.589.269-.89.261-1.117.147-.228-.115-.417-.354-.56-.993-.143-.644-.21-1.552-.304-2.838l-.048-.657-.007-.093c-.045-.63-.078-1.092-.293-1.499-.214-.405-.576-.695-1.074-1.093l-.073-.06Zm15.4-10.297-.053.258.053-.258c-.913-.186-2.059-.247-3.174-.308l-.028-.001-.816-.044-.167-.01-.112-.133-.526-.63-.018-.021c-.72-.862-1.458-1.745-2.153-2.366-.747-.667-2.087-1.623-3.917-1.33-1.85.297-2.818 1.646-3.308 2.53-.45.813-.849 1.884-1.235 2.92l-.01.026-.284.763-.042.112-.113.045-.76.297-.026.01c-1.031.404-2.097.821-2.902 1.285-.874.502-2.213 1.492-2.478 3.35-.262 1.841.727 3.166 1.408 3.898.322.345.71.699 1.126 1.054-.848.214-1.512.35-2.044.382-.697.044-1.063-.094-1.315-.366-.292-.315-.418-.799-.304-1.747.114-.947.447-2.213.912-3.97l.238-.9.026-.1c.237-.893.392-1.48.313-2.07-.08-.592-.384-1.107-.845-1.885l-.051-.086-.464-.785c-.906-1.53-1.556-2.631-1.912-3.499-.354-.862-.367-1.371-.163-1.78.2-.403.59-.677 1.456-.864.877-.19 2.104-.261 3.82-.36l.88-.05.105-.007c.863-.049 1.45-.082 1.97-.36.515-.274.889-.75 1.446-1.458l.067-.086.568-.721c1.106-1.407 1.902-2.417 2.575-3.056.674-.64 1.107-.793 1.497-.727.39.067.753.358 1.185 1.187.432.827.86 2.046 1.456 3.743l.305.87.036.102c.3.856.5 1.427.897 1.857.401.433.945.659 1.747.992l.096.04.815.339c1.591.662 2.729 1.137 3.497 1.607.759.464 1.043.854 1.104 1.303.042.314-.028.635-.272 1.03a7.425 7.425 0 0 0-.106-.022Z"/></g></g><defs><linearGradient id="b" x1="-2.088" x2="30" y1=".156" y2="60.156" gradientUnits="userSpaceOnUse"><stop stop-color="#F64DFF"/><stop offset="1" stop-color="#DA00E6"/></linearGradient><linearGradient id="d" x1="30" x2="30" y1="13.49" y2="83.241" gradientUnits="userSpaceOnUse"><stop offset=".265" stop-color="#fff"/><stop offset="1" stop-color="#fff" stop-opacity="0"/></linearGradient><linearGradient id="e" x1="30" x2="30" y1="13.49" y2="45.156" gradientUnits="userSpaceOnUse"><stop stop-color="#fff" stop-opacity="0"/><stop offset="1" stop-color="#fff"/></linearGradient><filter id="a" width="60" height="62" x="0" y=".156" color-interpolation-filters="sRGB" filterUnits="userSpaceOnUse"><feFlood flood-opacity="0" result="BackgroundImageFix"/><feBlend in="SourceGraphic" in2="BackgroundImageFix" result="shape"/><feColorMatrix in="SourceAlpha" result="hardAlpha" values="0 0 0 0 0 0 0 0 0 0 0 0 0 0 0 0 0 0 127 0"/><feOffset dy="2"/><feGaussianBlur stdDeviation="2.1"/><feComposite in2="hardAlpha" k2="-1" k3="1" operator="arithmetic"/><feColorMatrix values="0 0 0 0 1 0 0 0 0 1 0 0 0 0 1 0 0 0 0.25 0"/><feBlend in2="shape" result="effect1_innerShadow_344_997"/><feColorMatrix in="SourceAlpha" result="hardAlpha" values="0 0 0 0 0 0 0 0 0 0 0 0 0 0 0 0 0 0 127 0"/><feOffset dy="1"/><feGaussianBlur stdDeviation="1"/><feComposite in2="hardAlpha" k2="-1" k3="1" operator="arithmetic"/><feColorMatrix values="0 0 0 0 1 0 0 0 0 1 0 0 0 0 1 0 0 0 0.1 0"/><feBlend in2="effect1_innerShadow_344_997" result="effect2_innerShadow_344_997"/></filter><filter id="c" width="48.8" height="48.8" x="5.6" y="7.756" color-interpolation-filters="sRGB" filterUnits="userSpaceOnUse"><feFlood flood-opacity="0" result="BackgroundImageFix"/><feColorMatrix in="SourceAlpha" result="hardAlpha" values="0 0 0 0 0 0 0 0 0 0 0 0 0 0 0 0 0 0 127 0"/><feOffset dy="2"/><feGaussianBlur stdDeviation="2.2"/><feComposite in2="hardAlpha" operator="out"/><feColorMatrix values="0 0 0 0 0.4 0 0 0 0 0.172549 0 0 0 0 0 0 0 0 0.3 0"/><feBlend in2="BackgroundImageFix" result="effect1_dropShadow_344_997"/><feBlend in="SourceGraphic" in2="effect1_dropShadow_344_997" result="shape"/></filter></defs></svg>